# xmcd
#
# Track frame offsets:
#       150
#       24449
#       43199
#       66255
#       80998
#       100151
#       123568
#       142880
#       164110
#       182229
#
# Disc length: 2645 seconds
#
# Revision: 0
# Processed by: cddbd v1.4PL0 Copyright (c) Steve Scherf et al.
# Submitted via: CD-DA_X-Tractor v0.21
#
DISCID=920a530a
DTITLE=A Celebration Of Blues - Great Blues Ballads
DYEAR=1900
DGENRE=
TTITLE0=Our First Blues Song_ Bobby Bland
TTITLE1=I Love You_Ernie Johnson
TTITLE2=A Real Good Woman_Little Milton
TTITLE3=What Am I Goning To Tell Her_Z.Z. Hill
TTITLE4=Nothing Like A Lady_Johnnie Taylor
TTITLE5=Why Can't You Love Me_Stan Mosley
TTITLE6=One Step From The Blues_Artie White
TTITLE7=I'll Always Love You_The Beat Daddys
TTITLE8=All Night Blue_Dorothy Moore
TTITLE9=Seeing You Again_Ruby Wilson
EXTD=
EXTT0=
EXTT1=
EXTT2=
EXTT3=
EXTT4=
EXTT5=
EXTT6=
EXTT7=
EXTT8=
EXTT9=
PLAYORDER=
